<svg xmlns="http://www.w3.org/2000/svg" xmlns:xlink="http://www.w3.org/1999/xlink" width="329.372" height="329.372" viewBox="0 0 1691.87 1691.87" xml:space="preserve" style="shape-rendering:geometricPrecision;text-rendering:geometricPrecision;image-rendering:optimizeQuality;fill-rule:evenodd;clip-rule:evenodd"><defs><style type="text/css">.fil0{fill:#f58634}</style></defs><g id="Capa_x0020_1"><metadata id="CorelCorpID_0Corel-Layer"/><path d="M-0 0l1691.87 0 0 1691.87 -1691.87 0 0 -1691.87zm1040.35 740.348c-20.9285,-28.5388 -44.5905,-48.8713 -70.9879,-60.9993 -26.3974,-12.13 -59.3355,-18.193 -98.8123,-18.193 -64.2104,0 -114.984,16.7661 -152.322,50.2982 -37.3373,33.5321 -56.006,78.5982 -56.006,135.198 0,56.1244 17.7174,100.833 53.1521,134.129 35.4347,33.2934 84.5429,49.941 147.326,49.941 37.5761,0 69.7997,-6.18341 96.6728,-18.5502 26.8731,-12.3668 51.962,-32.8177 75.2687,-61.3565l58.5026 34.9591c-58.9783,71.3451 -135.556,107.017 -229.73,107.017 -81.8093,0 -147.21,-21.9962 -196.2,-65.9926 -48.9897,-43.9964 -73.4846,-103.093 -73.4846,-177.292 0,-76.5772 25.2074,-137.458 75.6259,-182.645 50.4166,-45.1845 117.481,-67.7768 201.193,-67.7768 97.9794,0 173.842,35.4347 227.59,106.304l-57.7901 34.9591z" class="fil0"/></g></svg>