<svg xmlns="http://www.w3.org/2000/svg" xmlns:svg="http://www.w3.org/2000/svg" xmlns:xlink="http://www.w3.org/1999/xlink" id="svg3136" width="32" height="32" version="1.1"><defs id="defs3138"><linearGradient id="linearGradient3961"><stop style="stop-color:#181818;stop-opacity:1" id="stop3963" offset="0"/><stop id="stop3969" offset=".711" style="stop-color:#656565;stop-opacity:.49803922"/><stop style="stop-color:#b3b3b3;stop-opacity:0" id="stop3965" offset="1"/></linearGradient><radialGradient id="radialGradient3967" cx="-80.257" cy="166.35" r="47.023" fx="-80.257" fy="166.35" gradientTransform="matrix(1,0,0,0.2255639,0,128.82767)" gradientUnits="userSpaceOnUse" xlink:href="#linearGradient3961"/></defs><metadata id="metadata3141"/><g id="layer1" transform="translate(-302.7687,-540.88197)"><path style="fill:#b3b3b3;fill-opacity:1" id="path3942" d="m -33.23402,166.3503 a 47.022602,10.606602 0 1 1 -94.0452,0 47.022602,10.606602 0 1 1 94.0452,0 z" transform="matrix(0.318797,0,0,0.318797,344.35427,516.29119)"/><path id="path3959" d="m -33.23402,166.3503 a 47.022602,10.606602 0 1 1 -94.0452,0 47.022602,10.606602 0 1 1 94.0452,0 z" transform="matrix(0.2245161,0,0,0.2245161,336.7876,532.59985)" style="fill:url(#radialGradient3967);fill-opacity:1"/><g id="g3944" transform="matrix(0.86741748,0,0,0.86741748,42.263158,73.832814)"><path id="path3160" d="m -210.01072,-83.611961 c 0,21.674098 -17.57032,39.244426 -39.24442,39.244426 -21.6741,0 -39.24443,-17.570328 -39.24443,-39.244426 0,-21.674099 17.57033,-39.244429 39.24443,-39.244429 21.6741,0 39.24442,17.57033 39.24442,39.244429 z" transform="matrix(0.4077012,0,0,0.4077012,420.39032,590.97067)" style="fill:#f60;fill-opacity:1"/><g style="fill:#fff" id="g3155" transform="matrix(0.25406877,0,0,0.25406877,229.84463,421.62536)"><path style="fill:#fff;fill-rule:evenodd" id="_609478952" d="m 328.69142,491.97303 c 6.98103,2.30421 12.51071,5.79401 12.37677,10.99559 -0.21295,8.27433 -7.64681,13.70196 -12.70629,21.00295 -3.0593,4.41602 -4.02626,7.13161 -2.95796,8.78456 1.56154,2.41583 7.47532,2.56359 17.57799,2.43532 13.63926,-0.17221 36.92835,-1.59413 39.19252,9.69874 1.97433,9.85606 -7.76445,19.29366 -13.85716,27.99177 l -0.36567,-0.10701 c 4.52976,-8.70449 12.96354,-18.2048 10.5874,-27.57224 -2.42008,-9.53291 -24.21213,-7.25421 -35.28035,-6.93602 -7.09335,0.20586 -19.32874,1.53956 -23.43969,-3.31123 -3.32787,-3.92562 -0.79582,-8.56913 2.86796,-13.00641 3.03874,-3.67795 6.85665,-7.21453 8.76968,-10.08496 3.97913,-5.97118 4.78382,-12.60496 -5.48362,-15.81414 -3.84591,-1.99913 -0.65162,-4.85326 2.71842,-4.07692 z" class="fil2"/><path style="fill:#fff;fill-rule:evenodd" id="_609479408" d="m 343.48898,491.97303 c 6.98067,2.30421 12.51036,5.79401 12.37642,10.99559 -0.21295,8.27433 -7.64575,13.70196 -12.70524,21.00295 -3.06,4.41602 -4.02732,7.13161 -2.95972,8.78456 1.55976,2.41583 7.3924,2.39386 17.49401,2.2663 13.64032,-0.1722 37.0148,-1.42511 39.27721,9.86776 1.97433,9.85535 -7.7641,19.29366 -13.85788,27.99177 l -0.36567,-0.10701 c 4.53083,-8.70449 12.96496,-18.2048 10.5874,-27.57224 -2.41972,-9.53291 -24.21177,-7.25421 -35.27929,-6.93602 -7.09334,0.20586 -19.32873,1.53956 -23.44003,-3.31123 -3.32681,-3.92562 -0.79654,-8.56913 2.86795,-13.00641 3.03874,-3.67795 6.85701,-7.21453 8.77004,-10.08496 3.97878,-5.97118 4.78382,-12.60496 -5.48398,-15.81414 -3.8459,-1.99913 -0.65126,-4.85326 2.71878,-4.07692 z" class="fil2"/><path style="fill:#fff;fill-rule:evenodd" id="_609479312" d="m 313.19052,491.97303 c 6.98173,2.30421 12.51142,5.79401 12.37748,10.99559 -0.21295,8.27433 -7.6461,13.70196 -12.70559,21.00295 -3.05965,4.41602 -4.02697,7.13161 -2.95937,8.78456 1.56153,2.41583 7.47638,2.56359 17.57905,2.43532 13.63996,-0.17221 36.92799,-1.59413 39.19217,9.69874 1.97504,9.85606 -7.76445,19.29366 -13.85788,27.99177 l -0.36567,-0.10701 c 4.53048,-8.70449 12.96425,-18.2048 10.5874,-27.57224 -2.41901,-9.53291 -23.87232,-6.74504 -34.94161,-6.42756 -7.09264,0.20587 -19.66571,1.0311 -23.77771,-3.81969 -3.32681,-3.92562 -0.7976,-8.56913 2.86795,-13.00641 3.03874,-3.67795 6.85665,-7.21453 8.77004,-10.08496 3.97878,-5.97118 4.78453,-12.60496 -5.48398,-15.81414 -3.84661,-1.99913 -0.65126,-4.85326 2.71772,-4.07692 z" class="fil2"/></g></g></g></svg>