<?xml version="1.0" encoding="UTF-8" standalone="no"?>
<!-- Created with Inkscape (http://www.inkscape.org/) -->

<svg
   xmlns:dc="http://purl.org/dc/elements/1.1/"
   xmlns:cc="http://creativecommons.org/ns#"
   xmlns:rdf="http://www.w3.org/1999/02/22-rdf-syntax-ns#"
   xmlns:svg="http://www.w3.org/2000/svg"
   xmlns="http://www.w3.org/2000/svg"
   version="1.1"
   width="212"
   height="32"
   viewBox="0 0 60 9"
   id="svg"
   preserveAspectRatio="xMinYMin meet"  
   xml:space="preserve"
   style="fill-rule:evenodd">
   <metadata
   id="metadata"><rdf:RDF><cc:Work
       rdf:about=""><dc:format>image/svg+xml</dc:format><dc:type
         rdf:resource="http://purl.org/dc/dcmitype/StillImage" /><dc:title></dc:title></cc:Work></rdf:RDF></metadata>
 <path
   d="m 59.336783,7.3847045 1.16e-4,0 0,1.978e-4 c 0.126399,0 0.243554,-0.040317 0.339236,-0.1087075 l -0.0172,0 -0.06965,0 c -0.0084,-0.025631 -0.01658,-0.056741 -0.02383,-0.093149 -0.0075,-0.036367 -0.01615,-0.086397 -0.0261,-0.1496951 l -0.0055,-0.039838 c -0.0081,-0.052755 -0.02524,-0.089596 -0.05215,-0.1109579 -0.02647,-0.021479 -0.06784,-0.032025 -0.124421,-0.032025 l -0.214574,0 0,0 0,0.4264189 0,0 -0.06484,0 -0.06538,0 0,-0.9525029 0,0 0.06484,0 0,0 0.314433,0 c 0.09623,0 0.171807,0.021712 0.226853,0.065311 0.05485,0.043277 0.08229,0.1032183 0.08229,0.17927 0,0.07775 -0.02954,0.1387965 -0.08849,0.1828244 -0.02795,0.021283 -0.06105,0.037277 -0.09986,0.048652 l 0,0 c 0.04275,0.00516 0.07404,0.015914 0.09386,0.033124 0.02918,0.024169 0.04908,0.073133 0.05952,0.1463384 0.008,0.05757 0.01554,0.1061413 0.02273,0.1457064 l 0.0075,0.041852 c 0.0061,0.029181 0.01124,0.051925 0.01585,0.068117 0.0012,0.00356 0.0018,0.00709 0.0031,0.010349 0.01222,-0.010349 0.02383,-0.021282 0.03532,-0.032455 0.105786,-0.1059442 0.171254,-0.2521241 0.171334,-0.4133098 l -1.59e-4,0 0,-1.579e-4 0,0 1.59e-4,0 C 59.92169,6.6388822 59.85623,6.4926224 59.750319,6.3868373 59.644288,6.2808948 59.498308,6.215386 59.337121,6.215386 l 0,1.978e-4 -2.77e-4,0 0,0 0,-1.978e-4 c -0.161261,0 -0.307407,0.065508 -0.413192,0.1714529 -0.105983,0.1058643 -0.171568,0.2520449 -0.171568,0.41323 l 3.93e-4,0 0,0 0,7.86e-5 -3.93e-4,0 c 0,0.161265 0.06559,0.3074449 0.171568,0.4133891 0.105785,0.105785 0.251931,0.1712539 0.413112,0.1713724 l 0,-1.978e-4 8e-5,0 z m -0.194275,-0.6423328 0,0 0.226853,0 c 0.06377,0 0.113328,-0.012831 0.14835,-0.038462 0.03519,-0.025471 0.05282,-0.062037 0.05282,-0.1087861 0,-0.057024 -0.01873,-0.098599 -0.05577,-0.1240684 -0.03722,-0.025668 -0.09706,-0.038462 -0.179903,-0.038462 l -0.192383,0 0,0 0,0.3097746 z m 0.194391,0.7562918 0,1.978e-4 -1.16e-4,0 -8e-5,0 0,-1.978e-4 c -0.19301,0 -0.367544,-0.078104 -0.4939,-0.2044625 C 58.716484,7.1679608 58.638258,6.9932323 58.638258,6.8001408 l -1.17e-4,0 0,-7.87e-5 0,0 1.17e-4,0 c 0,-0.1930123 0.07823,-0.3676628 0.204545,-0.493981 0.126356,-0.126358 0.30089,-0.2045816 0.49398,-0.2045816 l 0,-7.86e-5 0,0 2.76e-4,0 0,7.86e-5 c 0.19293,7.92e-5 0.367661,0.078224 0.49382,0.2045816 0.126319,0.1263182 0.204465,0.3009687 0.204545,0.493981 l 2.76e-4,0 0,0 0,1.579e-4 -2.76e-4,0 c -8e-5,0.1930123 -0.07823,0.3677408 -0.204385,0.4939018 -0.126319,0.1264373 -0.30105,0.2045417 -0.49414,0.2045417 z"
   id="_609477776"
   style="fill:#333333;fill-opacity:1;fill-rule:nonzero" /><path
   d="M 2.8888517,0.01455602 C 3.6668227,0.27133921 4.2830552,0.6602456 4.2681292,1.2399131 4.2444022,2.1620106 3.4159621,2.7668716 2.8521292,3.5804988 2.5111993,4.0726237 2.4034396,4.3752513 2.5224922,4.5594577 2.6965113,4.8286796 3.3555476,4.8451448 4.4813977,4.8308509 6.0013665,4.8116629 8.5967212,4.6531993 8.8490425,5.911686 9.0690636,7.0100538 7.9837662,8.0617863 7.3047889,9.0311107 L 7.264036,9.0191888 C 7.7688363,8.0491538 8.7087037,6.9904315 8.4439041,5.9465167 8.1742087,4.8841614 5.7456862,5.1381017 4.5122342,5.1735607 3.7217461,5.1965077 2.3582244,5.3451316 1.9000974,4.8045558 1.5292363,4.3670805 1.8114095,3.8496052 2.2197043,3.3551101 2.5583438,2.9452368 2.983815,2.5511174 3.1970042,2.2312348 3.6404423,1.5658019 3.7301172,0.82652794 2.5859059,0.46889519 2.1573151,0.24611022 2.5132858,-0.07195674 2.8888486,0.01455909 z"
   id="_609478952"
   style="fill:#333333;fill-opacity:1" /><path
   d="M 4.5379033,0.01455602 C 5.315835,0.27133921 5.9320669,0.6602456 5.9171409,1.2399131 5.8934139,2.1620106 5.0650923,2.7668716 4.5012594,3.5804988 4.1602509,4.0726237 4.0524512,4.3752513 4.1714259,4.5594577 4.3452466,4.8286796 4.9952404,4.8262307 6.120972,4.8120154 7.6410594,4.7928275 10.245931,4.6531993 10.498055,5.911686 10.718075,7.0099745 9.6328178,8.0617863 8.9537226,9.0311107 L 8.9129696,9.0191888 C 9.4178885,8.0491538 10.357795,6.9904315 10.092838,5.9465167 9.8231823,4.8841614 7.3946598,5.1381017 6.1612864,5.1735607 5.3707984,5.1965077 4.0072766,5.3451316 3.5491097,4.8045558 3.1783672,4.3670805 3.4603438,3.8496052 3.8687166,3.3551101 4.2073561,2.9452368 4.6328666,2.5511174 4.846057,2.2312348 5.2894552,1.5658019 5.3791688,0.82652794 4.2349182,0.46889519 3.8063274,0.24611022 4.1623436,-0.07195674 4.5379015,0.01455909 z"
   id="_609479408"
   style="fill:#333333;fill-opacity:1" /><path
   d="M 1.161419,0.01455602 C 1.939469,0.27133921 2.5557008,0.6602456 2.5407749,1.2399131 2.5170479,2.1620106 1.6886869,2.7668716 1.1248541,3.5804988 0.78388451,4.0726237 0.67608532,4.3752513 0.79505961,4.5594577 0.96907807,4.8286796 1.6282325,4.8451448 2.7540832,4.8308509 4.2741307,4.8116629 6.8693675,4.6531993 7.1216887,5.911686 7.3417884,7.0100538 6.2564124,8.0617863 5.5773559,9.0311107 L 5.536603,9.0191888 C 6.0414825,8.0491538 6.9813493,6.9904315 6.7164711,5.9465167 6.4468942,4.8841614 4.0561212,5.1948444 2.8225506,5.2302242 2.0321412,5.2531712 0.63098836,5.3451316 0.17274305,4.8045558 -0.1979987,4.3670774 0.083859,3.8496022 0.49235119,3.3551071 0.83099013,2.9452338 1.2564615,2.5511144 1.4696908,2.2312317 1.9130892,1.5657988 2.002882,0.82652487 0.85855221,0.46889212 0.42988285,0.24610714 0.78597756,-0.07195982 1.1614168,0.01455602 z"
   id="_609479312"
   style="fill:#333333;fill-opacity:1" /><path
   d="m 33.502484,0.15090427 0,2.44179043 -0.191788,0 C 33.246645,2.1234719 33.134782,1.7503603 32.974782,1.4731224 32.813043,1.1941478 32.582045,0.97377151 32.283406,0.81207272 c -0.2986,-0.16355469 -0.606045,-0.24533207 -0.92581,-0.24533207 -0.360831,0 -0.659431,0.11016845 -0.895641,0.33054473 -0.236408,0.22037632 -0.353763,0.47095982 -0.353763,0.75175172 0,0.2150848 0.07459,0.4122824 0.22393,0.588196 0.215124,0.261325 0.726755,0.6078614 1.535447,1.0414667 0.659431,0.3536059 1.110648,0.6254726 1.350688,0.8156811 0.241661,0.1884709 0.428236,0.4124008 0.558029,0.6682366 0.129794,0.2577705 0.19554,0.5260047 0.19554,0.8068752 0,0.53485 -0.207899,0.9951482 -0.622037,1.3825549 -0.415837,0.3875627 -0.949107,0.5812857 -1.601194,0.5812857 -0.2062,0 -0.398106,-0.015988 -0.57947,-0.048013 -0.106535,-0.016037 -0.330466,-0.08004 -0.668158,-0.1884709 -0.337652,-0.1101282 -0.552658,-0.1651732 -0.643439,-0.1651732 -0.08695,0 -0.154511,0.026571 -0.206122,0.078144 -0.04964,0.051569 -0.08703,0.1599616 -0.111865,0.3235164 l -0.191907,0 0,-2.4205065 0.191907,0 c 0.0905,0.5063408 0.21311,0.884901 0.366003,1.1373009 0.152815,0.2506634 0.385669,0.4602202 0.700182,0.6274074 0.312894,0.1651738 0.657694,0.2486882 1.032542,0.2486882 0.433764,0 0.776669,-0.1137219 1.029068,-0.3430225 0.250585,-0.2291028 0.376746,-0.4992325 0.376746,-0.8121261 0,-0.1741769 -0.04794,-0.3482746 -0.142233,-0.5260054 C 32.805975,5.2674602 32.656714,5.1038262 32.455884,4.9510914 32.3208,4.8462141 31.951163,4.6257594 31.346934,4.2862901 30.742627,3.9486776 30.314313,3.6785479 30.058359,3.4777166 29.802602,3.2752282 29.610578,3.0530359 29.477349,2.8113755 29.345818,2.5678602 29.279954,2.2994681 29.279954,2.0079362 c 0,-0.5064197 0.193762,-0.9417623 0.583024,-1.3079242 0.389103,-0.36600403 0.883282,-0.54910466 1.483956,-0.54910466 0.374929,0 0.773036,0.0906619 1.192347,0.27549993 0.193841,0.0869502 0.33244,0.12971452 0.410663,0.12971452 0.0905,0 0.165174,-0.0267723 0.222114,-0.08004 0.05686,-0.0551237 0.103061,-0.16347576 0.138638,-0.32517449 l 0.191788,0 z"
   id="_609480896"
   style="fill:#333333;fill-opacity:1;fill-rule:nonzero" /><path
   d="m 38.554042,5.0884236 -2.733322,0 -0.478028,1.1143201 c -0.119172,0.2737628 -0.177849,0.478068 -0.177849,0.614969 0,0.1066542 0.05157,0.2007115 0.152893,0.2825682 0.103179,0.081698 0.323437,0.1350055 0.664722,0.1598037 l 0,0.1920241 -2.22323,0 0,-0.1920241 c 0.294889,-0.053191 0.485136,-0.1206723 0.572125,-0.2042659 0.177692,-0.1653716 0.373349,-0.5047217 0.588394,-1.0148129 l 2.484358,-5.80962727 0.181363,0 2.457704,5.87185857 c 0.197394,0.472776 0.376863,0.7784046 0.538561,0.9188202 0.161738,0.1404549 0.387406,0.2202969 0.675344,0.2380273 l 0,0.1920241 -2.786589,0 0,-0.1920241 c 0.280751,-0.014096 0.47096,-0.062113 0.570467,-0.1420739 0.09951,-0.078105 0.149261,-0.1759932 0.149261,-0.2914926 0,-0.152814 -0.07116,-0.3927368 -0.209755,-0.723281 L 38.554042,5.0884236 z m -0.145785,-0.3856291 -1.197875,-2.8522952 -1.227924,2.8522952 2.425799,0 z"
   id="_609476864"
   style="fill:#333333;fill-opacity:1;fill-rule:nonzero" /><path
   d="m 43.79948,0.77704785 0,2.77596805 1.284746,0 c 0.295164,0 0.511986,-0.065666 0.648809,-0.1954606 0.136862,-0.1297141 0.227366,-0.3874847 0.273565,-0.7731531 l 0.191946,0 0,2.3885226 -0.191946,0 C 46.003,4.6993199 45.96751,4.4984898 45.900025,4.3704341 45.832545,4.2407193 45.738287,4.1448452 45.617496,4.0807184 45.498364,4.0167874 45.320634,3.9848844 45.084226,3.9848844 l -1.284746,0 0,2.2178596 c 0,0.3572778 0.0212,0.5935668 0.06741,0.7073686 0.03384,0.087029 0.106694,0.1616986 0.218639,0.2238507 0.152894,0.083554 0.310999,0.1261216 0.478186,0.1261216 l 0.255836,0 0,0.1920241 -3.030185,0 0,-0.1920241 0.248926,0 c 0.291452,0 0.504643,-0.085213 0.636173,-0.2558358 0.08347,-0.110168 0.124502,-0.3785607 0.124502,-0.8015051 l 0,-4.5618805 c 0,-0.357396 -0.0231,-0.5936065 -0.06756,-0.70736832 C 42.695743,0.84634727 42.624784,0.7717566 42.518013,0.70956471 42.368831,0.62604998 42.208948,0.5852205 42.038286,0.5852205 l -0.248925,0 0,-0.19384111 5.253415,0 0.0676,1.55151871 -0.183101,0 C 46.838313,1.6140908 46.731738,1.3724313 46.612763,1.2178005 46.493671,1.0630909 46.346069,0.95122453 46.170233,0.88192499 45.994241,0.81258601 45.724032,0.77704785 45.356291,0.77704785 l -1.556811,0 z"
   id="_609476408"
   style="fill:#333333;fill-opacity:1;fill-rule:nonzero" /><path
   d="m 50.797742,5.0884236 -2.733322,0 -0.478068,1.1143201 c -0.119132,0.2737628 -0.177612,0.478068 -0.177612,0.614969 0,0.1066542 0.05137,0.2007115 0.152696,0.2825682 0.10314,0.081698 0.323437,0.1350055 0.664722,0.1598037 l 0,0.1920241 -2.223269,0 0,-0.1920241 c 0.294966,-0.053191 0.485175,-0.1206723 0.572204,-0.2042659 0.17773,-0.1653716 0.373308,-0.5047217 0.588315,-1.0148129 l 2.484396,-5.80962727 0.181364,0 2.457782,5.87185857 c 0.197396,0.472776 0.376745,0.7784046 0.538483,0.9188202 0.161699,0.1404549 0.387367,0.2202969 0.675424,0.2380273 l 0,0.1920241 -2.78663,0 0,-0.1920241 c 0.280713,-0.014096 0.470882,-0.062113 0.570388,-0.1420739 0.09963,-0.078105 0.14926,-0.1759932 0.14926,-0.2914926 0,-0.152814 -0.07104,-0.3927368 -0.209635,-0.723281 L 50.797742,5.0884236 z m -0.145707,-0.3856291 -1.197913,-2.8522952 -1.227964,2.8522952 2.425877,0 z"
   id="_609478736"
   style="fill:#333333;fill-opacity:1;fill-rule:nonzero" /><path
   d="m 58.005682,0.15090427 0,2.44179043 -0.191911,0 C 57.749727,2.1234719 57.637861,1.7503603 57.477859,1.4731224 57.316081,1.1941478 57.08504,0.97377151 56.78652,0.81207272 56.487921,0.64851803 56.180555,0.56674065 55.860593,0.56674065 c -0.360752,0 -0.659352,0.11016845 -0.895563,0.33054473 -0.236487,0.22037632 -0.353723,0.47095982 -0.353723,0.75175172 0,0.2150848 0.07459,0.4122824 0.22393,0.588196 0.215006,0.261325 0.726756,0.6078614 1.535447,1.0414667 0.65931,0.3536059 1.110651,0.6254726 1.350691,0.8156811 0.241656,0.1884709 0.428192,0.4124008 0.557907,0.6682366 0.129795,0.2577705 0.195657,0.5260047 0.195657,0.8068752 0,0.53485 -0.207935,0.9951482 -0.622036,1.3825549 -0.415877,0.3875627 -0.949148,0.5812857 -1.601193,0.5812857 -0.206318,0 -0.398225,-0.015988 -0.579391,-0.048013 -0.106614,-0.016037 -0.330544,-0.08004 -0.668275,-0.1884709 -0.337614,-0.1101282 -0.552738,-0.1651732 -0.6434,-0.1651732 -0.08695,0 -0.154552,0.026571 -0.206122,0.078144 -0.04975,0.051569 -0.08703,0.1599616 -0.111866,0.3235164 l -0.192025,0 0,-2.4205065 0.192025,0 c 0.09058,0.5063408 0.21319,0.884901 0.366004,1.1373009 0.152815,0.2506634 0.385747,0.4602202 0.700182,0.6274074 0.312775,0.1651738 0.657693,0.2486882 1.032542,0.2486882 0.433764,0 0.77667,-0.1137219 1.028988,-0.3430225 0.250666,-0.2291028 0.376825,-0.4992325 0.376825,-0.8121261 0,-0.1741769 -0.04797,-0.3482746 -0.142196,-0.5260054 C 57.308969,5.2674602 57.159789,5.1038262 56.95896,4.9510914 56.823797,4.8462141 56.45416,4.6257594 55.85005,4.2862901 55.245743,3.9486776 54.817507,3.6785479 54.561475,3.4777166 54.305599,3.2752282 54.113693,3.0530359 53.980425,2.8113755 53.848894,2.5678602 53.783069,2.2994681 53.783069,2.0079362 c 0,-0.5064197 0.193723,-0.9417623 0.583024,-1.3079242 0.389104,-0.36600403 0.883282,-0.54910466 1.483957,-0.54910466 0.374889,0 0.772916,0.0906619 1.192345,0.27549993 0.193802,0.0869502 0.332442,0.12971452 0.410662,0.12971452 0.09058,0 0.165174,-0.0267723 0.222117,-0.08004 0.05682,-0.0551237 0.103022,-0.16347576 0.138597,-0.32517449 l 0.191911,0 z"
   id="_609476144"
   style="fill:#333333;fill-opacity:1;fill-rule:nonzero" /><path
   d="m 14.74179,0.15090427 c 0.917043,0 1.711361,0.3465369 2.383073,1.04324353 0.671869,0.6965489 1.007705,1.5639178 1.007705,2.6052659 0,1.0733725 -0.339468,1.9637227 -1.016629,2.6710907 -0.677082,0.7091056 -1.496237,1.0628289 -2.457743,1.0628289 -0.970311,0 -1.787809,-0.346615 -2.448898,-1.0362538 -0.661129,-0.6911792 -0.991673,-1.5852018 -0.991673,-2.6816736 0,-1.121467 0.382114,-2.0348384 1.144487,-2.7439438 0.664604,-0.61485041 1.457303,-0.92055783 2.379678,-0.92055783 z m -0.09785,0.37844231 c -0.63262,0 -1.139157,0.23467058 -1.521232,0.70381432 -0.474435,0.5828658 -0.712581,1.4359405 -0.712581,2.5608821 0,1.1534123 0.246952,2.0401301 0.739314,2.6605484 0.378441,0.4726181 0.877911,0.709027 1.499948,0.709027 0.662906,0 1.210154,-0.2595088 1.642023,-0.7767076 0.431789,-0.5170809 0.648612,-1.3327614 0.648612,-2.4471608 0,-1.206719 -0.238106,-2.1077308 -0.714476,-2.7012978 C 15.84363,0.76583357 15.317468,0.52934658 14.64394,0.52934658 z"
   id="_609476816"
   style="fill:#333333;fill-opacity:1;fill-rule:nonzero" /><path
   d="m 20.784744,0.69653403 0,2.77581007 1.284746,0 c 0.295164,0 0.511908,-0.065665 0.648809,-0.1954606 0.136861,-0.1297141 0.227366,-0.3872869 0.273565,-0.7729553 l 0.191946,0 0,2.3884826 -0.191946,0 C 22.988425,4.6186481 22.95277,4.417818 22.885289,4.2899201 22.817768,4.1602453 22.723551,4.0641734 22.602761,4.0002444 22.483629,3.9363135 22.305899,3.9041724 22.06949,3.9041724 l -1.284746,0 0,2.2180574 c 0,0.3571199 0.02129,0.5936067 0.06748,0.7072107 0.03384,0.087226 0.106614,0.1616986 0.218639,0.2240086 0.152814,0.083396 0.31092,0.1261609 0.478068,0.1261609 l 0.255796,0 0,0.1919854 -3.030106,0 0,-0.1919854 0.248926,0 c 0.291413,0 0.504642,-0.085331 0.636252,-0.2558751 0.08339,-0.1103259 0.124423,-0.3785608 0.124423,-0.8015051 l 0,-4.5620781 c 0,-0.3571588 -0.0231,-0.59356684 -0.06761,-0.70736805 C 19.680967,0.76583357 19.60993,0.6910848 19.503276,0.62885355 19.354095,0.54537824 19.194094,0.50454883 19.023551,0.50454883 l -0.248926,0 0,-0.19364376 5.253415,0 0.0676,1.55132143 -0.1831,0 C 23.823576,1.5334985 23.716962,1.2917597 23.597909,1.1371287 23.478935,0.98257709 23.331333,0.87071071 23.155498,0.80141129 22.979584,0.73211175 22.709454,0.69653403 22.341554,0.69653403 l -1.55681,0 z"
   id="_609480968"
   style="fill:#333333;fill-opacity:1;fill-rule:nonzero" /><path
   d="m 28.416574,7.17961 0,0.1919854 -3.026553,0 0,-0.1919854 0.250584,0 c 0.291413,0 0.502984,-0.085331 0.634515,-0.2558751 0.08348,-0.1103259 0.126042,-0.3785608 0.126042,-0.8015051 l 0,-4.5620781 c 0,-0.3571588 -0.0231,-0.59356684 -0.06748,-0.70736805 -0.03546,-0.0869501 -0.106694,-0.16169885 -0.21319,-0.2239301 -0.152814,-0.0834753 -0.312815,-0.12430472 -0.479884,-0.12430472 l -0.250584,0 0,-0.19364376 3.026553,0 0,0.19364376 -0.255877,0 c -0.288056,0 -0.497692,0.0852917 -0.629143,0.25409809 -0.08703,0.11206379 -0.131492,0.37848178 -0.131492,0.80150478 l 0,4.5620781 c 0,0.3571199 0.0231,0.5936067 0.06756,0.7072107 0.03538,0.087226 0.108313,0.1616986 0.218481,0.2240086 0.14926,0.083396 0.307524,0.1261609 0.474593,0.1261609 l 0.255876,0 z"
   id="_609477488"
   style="fill:#333333;fill-opacity:1;fill-rule:nonzero" />
</svg>