<?xml version="1.0" encoding="UTF-8"?>
<!DOCTYPE svg PUBLIC "-//W3C//DTD SVG 1.1//EN" "http://www.w3.org/Graphics/SVG/1.1/DTD/svg11.dtd">
<!-- Creator: CorelDRAW -->
<svg xmlns="http://www.w3.org/2000/svg" xml:space="preserve" width="87.1444mm" height="87.1444mm" style="shape-rendering:geometricPrecision; text-rendering:geometricPrecision; image-rendering:optimizeQuality; fill-rule:evenodd; clip-rule:evenodd"
viewBox="0 0 39.9671 39.9671"
 xmlns:xlink="http://www.w3.org/1999/xlink">
 <defs>
  <style type="text/css">
   <![CDATA[
    .fil0 {fill:#A8518A}
    .fil1 {fill:#FEFEFE}
    .fil2 {fill:#FEFEFE;fill-rule:nonzero}
   ]]>
  </style>
 </defs>
 <g id="Capa_x0020_1">
  <metadata id="CorelCorpID_0Corel-Layer"/>
  <rect class="fil0" y="1.05542e-005" width="39.9671" height="39.9671"/>
  <rect class="fil1" x="15.6991" y="16.9131" width="1.93746" height="9.29691"/>
  <rect class="fil1" transform="matrix(2.57758E-014 0.882386 -0.973239 2.33696E-014 21.3163 20.7192)" width="1.99073" height="9.55254"/>
  <path class="fil2" d="M25.9918 21.6548c-0.995687,0.551687 -2.23339,0.827461 -3.71349,0.827461l-0.227389 0 0 -1.75578 0.59067 0c0.968765,0 1.75582,-0.18836 2.36126,-0.565033 0.659281,-0.403641 0.988945,-0.955328 0.988945,-1.65497 0,-1.5742 -1.12346,-2.36131 -3.37043,-2.36131l-4.98486 0 0 0.00357732 -1.93748 0 0 -1.7594 6.80131 0c3.63272,0 5.44917,1.36566 5.44917,4.09699 0,1.39924 -0.652631,2.45542 -1.95771,3.16845z"/>
 </g>
</svg>
