<svg xmlns="http://www.w3.org/2000/svg" xmlns:xlink="http://www.w3.org/1999/xlink" width="329.354" height="329.353" viewBox="0 0 20.845 20.845" xml:space="preserve" style="shape-rendering:geometricPrecision;text-rendering:geometricPrecision;image-rendering:optimizeQuality;fill-rule:evenodd;clip-rule:evenodd"><defs><style type="text/css">.fil0{fill:#a8cf45}.fil1{fill:#fefefe;fill-rule:nonzero}</style></defs><g id="Capa_x0020_1"><metadata id="CorelCorpID_0Corel-Layer"/><polygon points="0 0 20.845 0 20.845 20.845 0 20.845" class="fil0"/><path d="M10.244 13.4617c-0.796405,0 -1.44647,-0.134743 -1.95006,-0.404135 -0.644176,-0.351366 -0.966335,-0.901846 -0.966335,-1.65146l0 -0.386434 0.852068 0 0 0.360097c0,0.878404 0.691084,1.3177 2.07318,1.3177 0.503596,0 0.913567,-0.0703498 1.22975,-0.210858 0.374832,-0.15809 0.562225,-0.395284 0.562225,-0.711559 0,-0.228344 -0.0585092,-0.395284 -0.175671,-0.500701 -0.117162,-0.105441 -0.32503,-0.199137 -0.623724,-0.281112 -0.175695,-0.0468122 -0.588561,-0.134648 -1.23862,-0.263531 -0.767103,-0.152229 -1.29125,-0.295704 -1.57236,-0.430447 -0.603152,-0.286877 -0.904836,-0.720314 -0.904836,-1.3 0,-1.07764 0.849197,-1.6164 2.54757,-1.6164 1.76851,0 2.66461,0.72328 2.68796,2.16975l-0.825731 0c-0.0409517,-0.620734 -0.222483,-1.01312 -0.544643,-1.17707 -0.286973,-0.152229 -0.726151,-0.228464 -1.31758,-0.228464 -1.13617,0 -1.70426,0.284102 -1.70426,0.852187 0,0.269367 0.134767,0.471375 0.404135,0.606023 0.222483,0.105417 0.612003,0.204998 1.16837,0.298694 1.08924,0.181532 1.82127,0.377798 2.19608,0.588537 0.497735,0.281112 0.746651,0.714454 0.746651,1.30012 0,0.591527 -0.313309,1.0336 -0.939903,1.32643 -0.474389,0.228464 -1.04247,0.342635 -1.70426,0.342635z" class="fil1"/></g></svg>